<svg width="240" height="240" xmlns="http://www.w3.org/2000/svg" color-interpolation-filters="sRGB" preserveAspectRatio="xMidYMid meet" version="1.0">
 <g>
  <title>Layer 1</title>
  <rect fill="#ffffff" x="8.58815" y="8.06261" width="222.82371" height="223.87477" id="svg_1" rx="50" stroke-width="0" stroke="#000"/>
  <g id="svg_27">
   <g stroke="null" id="svg_4" class="tp-name">
    <g stroke="null" id="svg_5">
     <g stroke="null" id="svg_6" fill="#020f40" data-gra="path-name">
      <g stroke="null" id="svg_7" transform="translate(114.172 86.1442) scale(1.12 1.12)">
       <path stroke="null" id="svg_8" d="m-35.85275,47.43303l-8.79,0l0,-43.95l8.79,0l0,43.95z"/>
      </g>
     </g>
    </g>
    <g stroke="null" id="svg_9" class="tp-graph">
     <polyline stroke="#e69138" id="svg_10" points="76.0159912109375,81.14417266845703 76.0159912109375,76.14417266845703 93.04098510742188,76.14417266845703 93.04098510742188,81.14417266845703 " stroke-linejoin="round" fill-opacity="0" stroke-width="2" data-gra="graph-name"/>
     <polyline stroke="#e69138" id="svg_11" points="76.0159912109375,141.26917266845703 76.0159912109375,146.26917266845703 93.04098510742188,146.26917266845703 93.04098510742188,141.26917266845703 " stroke-linejoin="round" fill-opacity="0" stroke-width="2" data-gra="graph-name"/>
     <g stroke="null" id="svg_12" fill="#e69138" data-gra="path-name">
      <g stroke="null" id="svg_13" transform="translate(114.172 86.1442) scale(1.2544 1.2544)">
       <path stroke="null" id="svg_14" d="m-28.02625,-1.59908l8.79,0l-2.93,8.79l-5.86,0l0,-8.79zm0,43.95l8.79,0l0,-32.23l-8.79,0l0,32.23z"/>
      </g>
     </g>
    </g>
    <g stroke="null" id="svg_15">
     <g stroke="null" id="svg_16" fill="#020f40" data-gra="path-name">
      <g stroke="null" id="svg_17" transform="translate(114.172 86.1442) scale(1.12 1.12)">
       <path stroke="null" id="svg_18" d="m-8.29137,47.43303l-8.79,0l0,-26.37q0,-5.86 5.86,-5.86l0,0l23.47,0q5.86,0 5.86,5.86l0,0l0,26.37l-8.79,0l-0.03,-23.44l-17.58,0l0,23.44z"/>
      </g>
     </g>
    </g>
    <g stroke="null" id="svg_19">
     <g stroke="null" id="svg_20" fill="#020f40" data-gra="path-name">
      <g stroke="null" id="svg_21" transform="translate(114.172 86.1442) scale(1.12 1.12)">
       <path stroke="null" id="svg_22" d="m28.6799,3.48303l0,23.44l4.86,0l3.9,-11.72l8.79,0l-3.93,11.78q2.52,0.24 4.18,1.7q1.65,1.46 2.71,4.1l0,0l5.86,14.65l-8.79,0l-5.01,-11.72l-12.57,0l0,11.72l-8.79,0l0,-43.95l8.79,0z"/>
      </g>
     </g>
    </g>
   </g>
   <g stroke="null" id="svg_23" fill="#020f40" class="tp-slogan" data-gra="path-slogan">
    <!---->
    <!---->
    <g stroke="null" id="svg_24" transform="translate(114.172 86.1442) scale(1 1)">
     <g stroke="null" id="svg_25" transform="translate(2.34558 73.125) scale(1.06 1.06)">
      <path stroke="null" id="svg_26" d="m-41.5097,-2.12299l-3,0l0,1.04l2.64,0l0,2.01l-2.64,0l0,1.2l3,0l0,2.12l-5.66,0l0,-8.5l5.66,0l0,2.13zm9.88,6.37l-0.42,-1.28l-2.83,0l-0.42,1.28l-2.8,0l3.11,-8.5l3.07,0l3.1,8.5l-2.81,0zm-2.6,-3.29l1.53,0l-0.77,-2.36l-0.76,2.36zm12.33,3.37q-1.52,0 -2.51,-0.71q-0.99,-0.71 -1.08,-2.09l0,0l2.84,0q0.06,0.73 0.64,0.73l0,0q0.22,0 0.37,-0.1q0.15,-0.11 0.15,-0.32l0,0q0,-0.3 -0.32,-0.49q-0.33,-0.18 -1.01,-0.42l0,0q-0.82,-0.29 -1.35,-0.57q-0.54,-0.27 -0.92,-0.8q-0.38,-0.53 -0.37,-1.36l0,0q0,-0.83 0.42,-1.41q0.43,-0.58 1.17,-0.88q0.74,-0.3 1.66,-0.3l0,0q1.56,0 2.48,0.72q0.92,0.72 0.96,2.03l0,0l-2.86,0q-0.02,-0.36 -0.18,-0.52q-0.17,-0.15 -0.41,-0.15l0,0q-0.17,0 -0.28,0.11q-0.11,0.11 -0.11,0.32l0,0q0,0.29 0.32,0.47q0.32,0.19 1.02,0.45l0,0q0.8,0.3 1.32,0.58q0.52,0.27 0.91,0.77q0.38,0.49 0.38,1.23l0,0q0,0.78 -0.38,1.4q-0.39,0.62 -1.12,0.97q-0.73,0.34 -1.74,0.34l0,0zm12.34,-8.58l3,0l-3.05,5.92l0,2.58l-2.66,0l0,-2.58l-3.05,-5.92l3.05,0l1.35,3.02l1.36,-3.02zm6.33,6.38q1.61,-1.2 2.55,-2.18q0.93,-0.98 0.93,-1.83l0,0q0,-0.29 -0.12,-0.45q-0.13,-0.15 -0.33,-0.15l0,0q-0.24,0 -0.38,0.24q-0.14,0.25 -0.1,0.75l0,0l-2.58,0q0.03,-1.11 0.48,-1.83q0.45,-0.72 1.17,-1.06q0.72,-0.33 1.59,-0.33l0,0q1.53,0 2.25,0.73q0.71,0.74 0.71,1.89l0,0q0,1.22 -0.77,2.28q-0.78,1.06 -1.94,1.79l0,0l2.75,0l0,2.15l-6.21,0l0,-2zm12.72,-6.38l0,6.48l2.57,0l0,2.02l-5.23,0l0,-8.5l2.66,0zm6.41,0l2.67,0l0,8.5l-2.67,0l0,-8.5zm15.01,0l0,8.5l-2.66,0l-2.82,-4.27l0,4.27l-2.66,0l0,-8.5l2.66,0l2.82,4.35l0,-4.35l2.66,0zm12.51,8.5l-3.17,0l-2.47,-3.68l0,3.68l-2.67,0l0,-8.5l2.67,0l0,3.58l2.43,-3.58l3.02,0l-2.93,4.07l3.12,4.43zm7.08,0.08q-1.53,0 -2.52,-0.71q-0.99,-0.71 -1.07,-2.09l0,0l2.83,0q0.06,0.73 0.65,0.73l0,0q0.22,0 0.37,-0.1q0.15,-0.11 0.15,-0.32l0,0q0,-0.3 -0.33,-0.49q-0.32,-0.18 -1.01,-0.42l0,0q-0.81,-0.29 -1.35,-0.57q-0.53,-0.27 -0.91,-0.8q-0.39,-0.53 -0.38,-1.36l0,0q0,-0.83 0.43,-1.41q0.43,-0.58 1.16,-0.88q0.74,-0.3 1.67,-0.3l0,0q1.56,0 2.47,0.72q0.92,0.72 0.97,2.03l0,0l-2.87,0q-0.01,-0.36 -0.18,-0.52q-0.17,-0.15 -0.41,-0.15l0,0q-0.16,0 -0.27,0.11q-0.11,0.11 -0.11,0.32l0,0q0,0.29 0.32,0.47q0.32,0.19 1.01,0.45l0,0q0.81,0.3 1.33,0.58q0.52,0.27 0.9,0.77q0.39,0.49 0.39,1.23l0,0q0,0.78 -0.39,1.4q-0.38,0.62 -1.11,0.97q-0.73,0.34 -1.74,0.34l0,0z"/>
     </g>
    </g>
   </g>
  </g>
 </g>

</svg>